<svg xmlns="http://www.w3.org/2000/svg" xmlns:xlink="http://www.w3.org/1999/xlink" viewBox="0 0 512 512" xmlns:v="https://vecta.io/nano">
  <path d="M490.3 434.9H21.7l7.5 7.5V195.8l-7.5 7.5h468.6l-7.5-7.5v246.6c0 9.7 15 9.7 15 0V195.8c0-4.1-3.4-7.5-7.5-7.5H21.7c-4.1 0-7.5 3.4-7.5 7.5v246.6c0 4.1 3.4 7.5 7.5 7.5h468.6c9.7 0 9.7-15 0-15z" />
  <path d="M490.3 434.9H21.7l7.5 7.5V273.8l-7.5 7.5h468.6l-7.5-7.5v168.6c0 9.7 15 9.7 15 0V273.8c0-4.1-3.4-7.5-7.5-7.5H21.7c-4.1 0-7.5 3.4-7.5 7.5v168.6c0 4.1 3.4 7.5 7.5 7.5h468.6c9.7 0 9.7-15 0-15z" />
  <path d="M164.2 195.8v246.6c0 9.7 15 9.7 15 0V195.8c0-9.7-15-9.7-15 0h0z" />
  <path d="M490.3 434.9H171.6l7.5 7.5V273.8l-7.5 7.5h318.7l-7.5-7.5v168.6c0 9.7 15 9.7 15 0V273.8c0-4.1-3.4-7.5-7.5-7.5H171.6c-4.1 0-7.5 3.4-7.5 7.5v168.6c0 4.1 3.4 7.5 7.5 7.5h318.7c9.7 0 9.7-15 0-15z" />
  <path d="M323.5 273.8v168.6c0 9.7 15 9.7 15 0V273.8c0-9.7-15-9.7-15 0h0zm-14.2-30.7h43.5c9.7 0 9.7-15 0-15h-43.5c-9.7 0-9.7 15 0 15h0z" />
  <path d="M490.3 266.3H171.6l7.5 7.5v-78l-7.5 7.5h318.7l-7.5-7.5v78c0 9.7 15 9.7 15 0v-78c0-4.1-3.4-7.5-7.5-7.5H171.6c-4.1 0-7.5 3.4-7.5 7.5v78c0 4.1 3.4 7.5 7.5 7.5h318.7c9.7 0 9.7-15 0-15zm-347 141.1H50.1l7.5 7.5V301.3l-7.5 7.5h93.2l-7.5-7.5v113.6c0 9.7 15 9.7 15 0V301.3c0-4.1-3.4-7.5-7.5-7.5H50.1c-4.1 0-7.5 3.4-7.5 7.5v113.6c0 4.1 3.4 7.5 7.5 7.5h93.2c9.6 0 9.6-15 0-15z" />
  <path d="M171.7 434.9h-150l7.5 7.5V273.8l-7.5 7.5h150l-7.5-7.5v168.6c0 9.7 15 9.7 15 0V273.8c0-4.1-3.4-7.5-7.5-7.5h-150c-4.1 0-7.5 3.4-7.5 7.5v168.6c0 4.1 3.4 7.5 7.5 7.5h150c9.7 0 9.7-15 0-15zm131.6-55v-43.5c0-9.7-15-9.7-15 0v43.5c0 9.6 15 9.6 15 0h0zm70.4 0v-43.5c0-9.7-15-9.7-15 0v43.5c0 9.6 15 9.6 15 0h0zM74.1 235.6c-.5 11.7-17.6 11.7-18.1 0-.4-11.6 17.7-11.6 18.1 0 .4 9.6 15.4 9.7 15 0-.5-13.5-10.6-23.5-24-24s-23.5 11.4-24 24c-.5 13.4 11.4 23.5 24 24 13.4.5 23.5-11.4 24-24 .4-9.6-14.6-9.6-15 0zm63.2 0c-.5 11.7-17.6 11.7-18.1 0-.5-11.6 17.6-11.6 18.1 0 .4 9.6 15.4 9.7 15 0-.5-13.5-10.6-23.5-24-24s-23.5 11.4-24 24c-.5 13.4 11.4 23.5 24 24 13.4.5 23.5-11.4 24-24 .4-9.6-14.6-9.6-15 0zm-93.1-50.9l7.8 14.9c1.2 2.3 3.9 3.7 6.5 3.7h76.3c2.5 0 5.3-1.4 6.5-3.7 6.6-12.5 13.9-24.5 13.9-39.2v-28.1c0-4.1-3.4-7.5-7.5-7.5H45.5c-4.1 0-7.5 3.4-7.5 7.5.1 17.7-2 36.1 6.2 52.4 4.3 8.7 17.3 1.1 13-7.6-4.1-8.2-4.1-16.5-4.1-25.4v-19.4l-7.5 7.5h102.2l-7.5-7.5v27.5c0 12.1-6.5 21.9-11.9 32.2 2.2-1.2 4.3-2.5 6.5-3.7H58.6c2.2 1.2 4.3 2.5 6.5 3.7l-7.8-14.9c-4.7-8.6-17.6-1-13.1 7.6z" />
  <path d="M171.7 140.9h-23.9c-9.7 0-9.7 15 0 15h23.9c9.7 0 9.7-15 0-15h0zm-126.1 0H21.7c-9.7 0-9.7 15 0 15h23.9c9.7 0 9.7-15 0-15h0zm247.8-49.4H490c9.7 0 9.7-15 0-15H293.4c-9.7 0-9.7 15 0 15h0z" />
  <path d="M374.3 131.9V70.5c0-9.7-15-9.7-15 0v61.4c0 9.7 15 9.7 15 0h0z" />
  <use xlink:href="#B" />
  <path d="M465.1 131V69.5c0-9.7-15-9.7-15 0V131c0 9.7 15 9.7 15 0h0z" />
  <use xlink:href="#B" x="90.8" y="-0.9" />
  <defs>
    <path id="B" d="M375.9 148.4c-.5 11.7-17.6 11.7-18.1 0-.5-11.6 17.6-11.6 18.1 0 .4 9.6 15.4 9.7 15 0-.5-13.5-10.6-23.5-24-24s-23.5 11.4-24 24c-.5 13.4 11.4 23.5 24 24 13.4.5 23.5-11.4 24-24 .3-9.6-14.7-9.6-15 0z" />
  </defs>
</svg>
