<svg id="icon" xmlns="http://www.w3.org/2000/svg" viewBox="0 0 512 512"><defs><style>.cls-1{fill:#b39edd;}.cls-2{fill:#e6e6e6;}.cls-3{fill:#ffca5f;}.cls-4{fill:#f7899e;}.cls-5{fill:#376782;}</style></defs><title>pie graph analytics</title><path class="cls-1" d="M382.81,305.06h33.39a11.05,11.05,0,0,1,11.05,11.05V466.22A27.75,27.75,0,0,1,399.5,494h0a27.75,27.75,0,0,1-27.75-27.75V316.11a11.05,11.05,0,0,1,11.05-11.05Z" transform="translate(-165.48 399.5) rotate(-45)"/><rect class="cls-2" x="300.01" y="288.22" width="28.54" height="52.13" transform="translate(-130.19 314.28) rotate(-45)"/><path class="cls-2" d="M192.82,37.59A155.24,155.24,0,1,0,348.07,192.83,155.25,155.25,0,0,0,192.82,37.59Zm0,270.46A115.22,115.22,0,1,1,308.05,192.83,115.22,115.22,0,0,1,192.82,308.05Z"/><path class="cls-2" d="M192.82,37.59A155.24,155.24,0,1,0,348.07,192.83,155.25,155.25,0,0,0,192.82,37.59Zm0,270.46A115.22,115.22,0,1,1,308.05,192.83,115.22,115.22,0,0,1,192.82,308.05Z"/><path class="cls-3" d="M122.26,203.57a63.31,63.31,0,1,0,126.61,0H185.56v-63.3A63.3,63.3,0,0,0,122.26,203.57Z"/><path class="cls-4" d="M211.25,119.94V177.5H268.8A57.55,57.55,0,0,0,211.25,119.94Z"/><path class="cls-5" d="M364,317.05a16.52,16.52,0,0,0-21-1.95l-12.83-12.84a5.47,5.47,0,0,0-7.74,7.74l12.64,12.63-12.45,12.45L300,312.47a160.36,160.36,0,0,0,53.52-119.64c0-88.61-72.09-160.71-160.71-160.71S32.11,104.22,32.11,192.83a160.56,160.56,0,0,0,109.57,152.4,5.47,5.47,0,0,0,3.48-10.37,149.64,149.64,0,0,1-102.11-142c0-82.58,67.19-149.77,149.77-149.77S342.6,110.25,342.6,192.83,275.41,342.6,192.82,342.6c-2.88,0-5.78-.09-8.67-.25l4.64-7.87a5.47,5.47,0,1,0-9.42-5.56l-16.19,27.45a35.18,35.18,0,0,1-30,16.92H63.29a5.47,5.47,0,1,0,0,10.94h69.93A46.18,46.18,0,0,0,172.57,362l5.38-9.12c4.93.45,9.92.69,14.87.69a159.92,159.92,0,0,0,98.78-34L315.1,343A16.54,16.54,0,0,0,317,364L423.18,470.16a33.22,33.22,0,1,0,47-47Zm98.4,145.38a22.31,22.31,0,0,1-31.5,0L324.78,356.29a5.59,5.59,0,0,1,0-7.9l23.6-23.61a5.6,5.6,0,0,1,7.9,0L462.42,430.93a22.26,22.26,0,0,1,0,31.5Z"/><path class="cls-5" d="M113.38,102c-.63.55-1.25,1.11-1.86,1.67a5.47,5.47,0,1,0,7.37,8.08c.56-.51,1.13-1,1.69-1.51a5.47,5.47,0,0,0-7.2-8.24Z"/><path class="cls-5" d="M95.46,131A5.48,5.48,0,0,0,88,133a120.6,120.6,0,1,0,55-50.12,5.47,5.47,0,0,0,4.52,10,109.74,109.74,0,1,1-50,45.59A5.47,5.47,0,0,0,95.46,131Z"/><path class="cls-5" d="M61.34,446.85h62a5.47,5.47,0,0,0,0-10.94h-62a5.47,5.47,0,0,0,0,10.94Z"/><path class="cls-5" d="M142.57,414.52a5.47,5.47,0,0,0,0-10.94H111.94a5.47,5.47,0,1,0,0,10.94Z"/><path class="cls-5" d="M61.34,414.52h31a5.47,5.47,0,1,0,0-10.94h-31a5.47,5.47,0,0,0,0,10.94Z"/><path class="cls-5" d="M185.56,134.8a63.62,63.62,0,0,0-23.84,4.25c-35.3,14.23-42.38,45.24-43,48.12a68.78,68.78,0,1,0,135.58,16.4,5.47,5.47,0,0,0-5.47-5.47H191V140.27A5.47,5.47,0,0,0,185.56,134.8ZM243.14,209a57.84,57.84,0,1,1-113.73-19.38c0-.08,0-.19.06-.27.22-1.14,5.8-27.88,36.34-40.2A48.92,48.92,0,0,1,180.1,146v57.61a5.46,5.46,0,0,0,5.46,5.47Z"/><path class="cls-5" d="M268.8,183a5.46,5.46,0,0,0,5.47-5.47,63.09,63.09,0,0,0-63-63,5.46,5.46,0,0,0-5.47,5.47V177.5a5.47,5.47,0,0,0,5.47,5.47ZM216.72,125.7A52.18,52.18,0,0,1,263.05,172H216.72Z"/></svg>