    <svg xmlns="http://www.w3.org/2000/svg" style="display: none">
      <symbol id="burger" viewBox="0 0 100 100">
        <line x1="0" y1="1" x2="23" y2="1" style="stroke: #fff; stroke-width: 1px;" />
        <line x1="0" y1="9" x2="23" y2="9" style="stroke: #fff; stroke-width: 1px;" />
        <line x1="0" y1="16" x2="23" y2="16" style="stroke: #fff; stroke-width: 1px;" />
      </symbol>
      <symbol id="card">
        <svg xmlns="http://www.w3.org/2000/svg" width="485.196" height="485.196">
          <path d="M85.736 45.479H0v30.327h65.892l106.143 242.599h252.508v-30.321H191.875z" />
          <path d="M151.628 106.131l60.654 151.631h212.261l60.653-151.631H151.628zM404.05 227.435H232.82l-36.396-90.978H440.42l-36.37 90.978zM227.443 348.737c-25.127 0-45.488 20.372-45.488 45.489 0 25.109 20.36 45.49 45.488 45.49 25.109 0 45.476-20.381 45.476-45.49 0-25.117-20.367-45.489-45.476-45.489zm0 60.649c-8.363 0-15.161-6.81-15.161-15.159 0-8.354 6.797-15.163 15.161-15.163 8.366 0 15.164 6.81 15.164 15.163-.001 8.349-6.798 15.159-15.164 15.159zM379.058 348.737c-25.113 0-45.49 20.372-45.49 45.489 0 25.109 20.377 45.49 45.49 45.49s45.485-20.381 45.485-45.49c0-25.117-20.372-45.489-45.485-45.489zm0 60.649c-8.35 0-15.158-6.81-15.158-15.159 0-8.354 6.809-15.163 15.158-15.163 8.345 0 15.163 6.81 15.163 15.163 0 8.349-6.809 15.159-15.163 15.159z" />
        </svg>
      </symbol>
      <symbol id="search" viewBox="0 0 100 100">
        <svg xmlns="http://www.w3.org/2000/svg" width="485.196" height="485.196">
          <path d="M85.736 45.479H0v30.327h65.892l106.143 242.599h252.508v-30.321H191.875z" />
          <path d="M151.628 106.131l60.654 151.631h212.261l60.653-151.631H151.628zM404.05 227.435H232.82l-36.396-90.978H440.42l-36.37 90.978zM227.443 348.737c-25.127 0-45.488 20.372-45.488 45.489 0 25.109 20.36 45.49 45.488 45.49 25.109 0 45.476-20.381 45.476-45.49 0-25.117-20.367-45.489-45.476-45.489zm0 60.649c-8.363 0-15.161-6.81-15.161-15.159 0-8.354 6.797-15.163 15.161-15.163 8.366 0 15.164 6.81 15.164 15.163-.001 8.349-6.798 15.159-15.164 15.159zM379.058 348.737c-25.113 0-45.49 20.372-45.49 45.489 0 25.109 20.377 45.49 45.49 45.49s45.485-20.381 45.485-45.49c0-25.117-20.372-45.489-45.485-45.489zm0 60.649c-8.35 0-15.158-6.81-15.158-15.159 0-8.354 6.809-15.163 15.158-15.163 8.345 0 15.163 6.81 15.163 15.163 0 8.349-6.809 15.159-15.163 15.159z" /></svg>
      </symbol>
    </svg>
