<svg style="display: none" xmlns="http://www.w3.org/2000/svg">
  <symbol id="features1">
    <svg width="70" height="70" viewBox="-10 0 63 31" xmlns="http://www.w3.org/2000/svg">
      <path d="M32.75 27.6875C34.3062 27.6875 35.5625 26.4312 35.5625 24.875C35.5625 23.3187 34.3062 22.0625 32.75 22.0625C31.1937 22.0625 29.9375 23.3187 29.9375 24.875C29.9375 26.4312 31.1937 27.6875 32.75 27.6875ZM35.5625 10.8125H30.875V15.5H39.2375L35.5625 10.8125ZM10.25 27.6875C11.8062 27.6875 13.0625 26.4312 13.0625 24.875C13.0625 23.3187 11.8062 22.0625 10.25 22.0625C8.69375 22.0625 7.4375 23.3187 7.4375 24.875C7.4375 26.4312 8.69375 27.6875 10.25 27.6875ZM36.5 8L42.125 15.5V24.875H38.375C38.375 27.9875 35.8625 30.5 32.75 30.5C29.6375 30.5 27.125 27.9875 27.125 24.875H15.875C15.875 27.9875 13.3625 30.5 10.25 30.5C7.1375 30.5 4.625 27.9875 4.625 24.875H0.875V4.25C0.875 2.16875 2.54375 0.5 4.625 0.5H30.875V8H36.5ZM4.625 4.25V21.125H6.05C7.08125 19.9812 8.58125 19.25 10.25 19.25C11.9187 19.25 13.4187 19.9812 14.45 21.125H27.125V4.25H4.625ZM17.75 6.125L24.3125 12.6875L17.75 19.25V14.5625H8.375V10.8125H17.75V6.125Z" />
    </svg>
  </symbol>
  <symbol id="features2">
    <svg width="70" height="70" viewBox="-10 0 55 35" xmlns="http://www.w3.org/2000/svg">
      <path d="M34.3187 8.63127C34.4926 8.4578 34.6305 8.25176 34.7246 8.02494C34.8186 7.79811 34.8671 7.55496 34.8671 7.30939C34.8671 7.06383 34.8186 6.82067 34.7246 6.59385C34.6305 6.36702 34.4926 6.16098 34.3187 5.98752L29.0125 0.681267C28.839 0.507448 28.633 0.369546 28.4062 0.275456C28.1793 0.181366 27.9362 0.132935 27.6906 0.132935C27.4451 0.132935 27.2019 0.181366 26.9751 0.275456C26.7483 0.369546 26.5422 0.507448 26.3687 0.681267L17.95 9.10002L10.6563 1.80627C9.19375 0.343767 6.8125 0.343767 5.35 1.80627L1.7875 5.36877C0.325 6.83127 0.325 9.21252 1.7875 10.675L9.08125 17.9688L0.625 26.425V34.375H8.575L17.05 25.9L24.3438 33.1938C26.125 34.975 28.525 34.3188 29.65 33.1938L33.2125 29.6313C34.675 28.1688 34.675 25.7875 33.2125 24.325L25.9187 17.0313L34.3187 8.63127ZM4.45 8.01252L7.99375 4.45002L10.375 6.83127L8.1625 9.06252L10.8063 11.7063L13.0375 9.47502L15.2875 11.725L11.725 15.2875L4.45 8.01252ZM25.5063 21.9625L23.275 24.1938L25.9187 26.8375L28.15 24.6063L30.5313 26.9875L26.9687 30.55L19.675 23.2563L23.2375 19.6938L25.5063 21.9625ZM7.01875 30.625H4.375V27.9813L22.3937 9.96252L24.8312 12.4L25.0375 12.6063L7.01875 30.625ZM25.0375 7.30002L27.6813 4.65627L30.325 7.30002L27.6813 9.94377L25.0375 7.30002Z" />
    </svg>
  </symbol>
  <symbol id="features3">
    <svg width="70" height="70" viewBox="-5 0 53 39" xmlns="http://www.w3.org/2000/svg">
      <path d="M26.375 14H38.375C39.3696 14 40.3234 14.3951 41.0266 15.0984C41.7299 15.8016 42.125 16.7554 42.125 17.75V21.695C42.1255 22.1851 42.03 22.6705 41.8438 23.1238L36.0406 37.2144C35.8991 37.5579 35.6586 37.8516 35.3498 38.0583C35.041 38.2649 34.6778 38.3752 34.3063 38.375H2.75C2.25272 38.375 1.77581 38.1775 1.42417 37.8258C1.07254 37.4742 0.875 36.9973 0.875 36.5V17.75C0.875 17.2527 1.07254 16.7758 1.42417 16.4242C1.77581 16.0725 2.25272 15.875 2.75 15.875H9.27875C9.57893 15.8751 9.87474 15.8031 10.1413 15.6651C10.4079 15.5271 10.6374 15.327 10.8106 15.0819L21.035 0.593753C21.1643 0.410589 21.3549 0.279804 21.5723 0.225109C21.7897 0.170415 22.0195 0.195433 22.22 0.295628L25.6213 1.99625C26.5784 2.47468 27.3431 3.26622 27.7882 4.23934C28.2334 5.21247 28.3321 6.30861 28.0681 7.34563L26.375 14ZM12.125 18.8525V34.625H33.05L38.375 21.695V17.75H26.375C25.8039 17.7499 25.2403 17.6194 24.7273 17.3684C24.2143 17.1173 23.7654 16.7524 23.4149 16.3015C23.0644 15.8506 22.8215 15.3256 22.7047 14.7665C22.588 14.2075 22.6005 13.6291 22.7412 13.0756L24.4344 6.42313C24.4874 6.21562 24.4677 5.99622 24.3787 5.80143C24.2896 5.60665 24.1366 5.44822 23.945 5.3525L22.7056 4.73375L13.8744 17.2438C13.4056 17.9075 12.8056 18.4513 12.125 18.8525ZM8.375 19.625H4.625V34.625H8.375V19.625Z" />
    </svg>
  </symbol>
  <symbol id="features4">
    <svg width="70" height="70" viewBox="-5 0 55 25" xmlns="http://www.w3.org/2000/svg">
      <path d="M13.125 0.25H16.875C17.8696 0.25 18.8234 0.645088 19.5266 1.34835C20.2299 2.05161 20.625 3.00544 20.625 4V11.5H9.375V4C9.375 3.00544 9.77009 2.05161 10.4733 1.34835C11.1766 0.645088 12.1304 0.25 13.125 0.25ZM28.125 0.25H31.875C32.8696 0.25 33.8234 0.645088 34.5266 1.34835C35.2299 2.05161 35.625 3.00544 35.625 4V11.5H24.375V4C24.375 3.00544 24.7701 2.05161 25.4734 1.34835C26.1766 0.645088 27.1304 0.25 28.125 0.25ZM1.875 5.875H3.75C4.24728 5.875 4.72419 6.07254 5.07583 6.42418C5.42746 6.77581 5.625 7.25272 5.625 7.75V11.5C5.625 12.4946 6.02009 13.4484 6.72335 14.1516C7.42661 14.8549 8.38044 15.25 9.375 15.25H35.625C36.6196 15.25 37.5734 14.8549 38.2766 14.1516C38.9799 13.4484 39.375 12.4946 39.375 11.5V7.75C39.375 7.25272 39.5725 6.77581 39.9242 6.42418C40.2758 6.07254 40.7527 5.875 41.25 5.875H43.125C43.6223 5.875 44.0992 6.07254 44.4508 6.42418C44.8025 6.77581 45 7.25272 45 7.75V24.625H39.375V20.875H5.625V24.625H0V7.75C0 7.25272 0.197544 6.77581 0.549175 6.42418C0.900806 6.07254 1.37772 5.875 1.875 5.875Z" />
    </svg>
  </symbol>
</svg>
