    <svg display="none" xmlns="http://www.w3.org/2000/svg">
        <symbol id="card">
            <svg xmlns="http://www.w3.org/2000/svg" width="485.196" height="485.196">
                <path d="M85.736 45.479H0v30.327h65.892l106.143 242.599h252.508v-30.321H191.875z" />
                <path d="M151.628 106.131l60.654 151.631h212.261l60.653-151.631H151.628zM404.05 227.435H232.82l-36.396-90.978H440.42l-36.37 90.978zM227.443 348.737c-25.127 0-45.488 20.372-45.488 45.489 0 25.109 20.36 45.49 45.488 45.49 25.109 0 45.476-20.381 45.476-45.49 0-25.117-20.367-45.489-45.476-45.489zm0 60.649c-8.363 0-15.161-6.81-15.161-15.159 0-8.354 6.797-15.163 15.161-15.163 8.366 0 15.164 6.81 15.164 15.163-.001 8.349-6.798 15.159-15.164 15.159zM379.058 348.737c-25.113 0-45.49 20.372-45.49 45.489 0 25.109 20.377 45.49 45.49 45.49s45.485-20.381 45.485-45.49c0-25.117-20.372-45.489-45.485-45.489zm0 60.649c-8.35 0-15.158-6.81-15.158-15.159 0-8.354 6.809-15.163 15.158-15.163 8.345 0 15.163 6.81 15.163 15.163 0 8.349-6.809 15.159-15.163 15.159z" />
            </svg>
        </symbol>
        <symbol id="search" viewBox="0 0 100 100">
            <svg xmlns="http://www.w3.org/2000/svg" width="485.196" height="485.196">
                <path d="M85.736 45.479H0v30.327h65.892l106.143 242.599h252.508v-30.321H191.875z" />
                <path d="M151.628 106.131l60.654 151.631h212.261l60.653-151.631H151.628zM404.05 227.435H232.82l-36.396-90.978H440.42l-36.37 90.978zM227.443 348.737c-25.127 0-45.488 20.372-45.488 45.489 0 25.109 20.36 45.49 45.488 45.49 25.109 0 45.476-20.381 45.476-45.49 0-25.117-20.367-45.489-45.476-45.489zm0 60.649c-8.363 0-15.161-6.81-15.161-15.159 0-8.354 6.797-15.163 15.161-15.163 8.366 0 15.164 6.81 15.164 15.163-.001 8.349-6.798 15.159-15.164 15.159zM379.058 348.737c-25.113 0-45.49 20.372-45.49 45.489 0 25.109 20.377 45.49 45.49 45.49s45.485-20.381 45.485-45.49c0-25.117-20.372-45.489-45.485-45.489zm0 60.649c-8.35 0-15.158-6.81-15.158-15.159 0-8.354 6.809-15.163 15.158-15.163 8.345 0 15.163 6.81 15.163 15.163 0 8.349-6.809 15.159-15.163 15.159z" /></svg>
        </symbol>
        <symbol id="cat1" viewBox="0 0 100 100">
            <svg viewBox="0 0 32 32" xmlns="http://www.w3.org/2000/svg">
                <g data-name="Layer 2">
                    <path d="M12 21a1 1 0 01-.71-.29 1 1 0 010-1.42l8-8a1 1 0 011.42 1.42l-8 8A1 1 0 0112 21zM12.5 14a1.5 1.5 0 111.5-1.5 1.5 1.5 0 01-1.5 1.5zm0-2a.5.5 0 10.5.5.5.5 0 00-.5-.5zM19.5 21a1.5 1.5 0 111.5-1.5 1.5 1.5 0 01-1.5 1.5zm0-2a.5.5 0 10.5.5.5.5 0 00-.5-.5z" />
                    <path d="M19.71 28.5a1 1 0 01-.83-.44l-.23-.34a3.16 3.16 0 00-5.3 0l-.23.34a1 1 0 01-1.83-.59v-.17a3.52 3.52 0 00-1.42-3A3.09 3.09 0 007 23.92l-.36.13A1 1 0 015.5 22.5a3.57 3.57 0 00.5-3.3A3.28 3.28 0 003.84 17h-.13a1 1 0 010-1.92h.13A3.28 3.28 0 006 12.8a3.57 3.57 0 00-.5-3.3A1 1 0 016.63 8l.37.08a3.09 3.09 0 002.89-.42 3.52 3.52 0 001.42-3v-.13a1 1 0 011.83-.59l.23.34A3.19 3.19 0 0016 5.72a3.19 3.19 0 002.65-1.44l.23-.34a1 1 0 011.83.59v.17a3.52 3.52 0 001.42 3 3.09 3.09 0 002.87.38l.37-.08a1 1 0 011.13 1.5 3.57 3.57 0 00-.5 3.3 3.28 3.28 0 002.2 2.2h.13a1 1 0 010 1.92h-.13A3.28 3.28 0 0026 19.2a3.57 3.57 0 00.54 3.3 1 1 0 01-1.13 1.55l-.41-.13a3.09 3.09 0 00-2.89.42 3.52 3.52 0 00-1.42 3v.17a1 1 0 01-.69 1 1.18 1.18 0 01-.29-.01zM16 24.28a5.1 5.1 0 013 1 5.42 5.42 0 012-2.56 5.11 5.11 0 013-1 5.64 5.64 0 01.1-3.15A5.5 5.5 0 0125.83 16a5.5 5.5 0 01-1.78-2.58 5.64 5.64 0 01-.1-3.15 5.11 5.11 0 01-3-1A5.42 5.42 0 0119 6.73a5.1 5.1 0 01-3 1 5.1 5.1 0 01-3-1 5.36 5.36 0 01-1.91 2.55 5.11 5.11 0 01-3 1A5.64 5.64 0 018 13.42 5.5 5.5 0 016.17 16 5.5 5.5 0 018 18.58a5.64 5.64 0 01.1 3.15 5.11 5.11 0 013 1 5.36 5.36 0 011.9 2.54 5.1 5.1 0 013-.99z" />
                </g>
                <path fill="none" d="M0 0h32v32H0z" />
            </svg>
        </symbol>
        <symbol id="more" viewBox="0 0 25 25">
            <svg viewBox="0 0 25 25" xmlns="http://www.w3.org/2000/svg">
                <polyline points="10,10 15,15 10,20" style="fill:none;stroke:#dd7281;stroke-width:1" />
            </svg>
        </symbol>
        <symbol id="category1" viewBox="0 0 20 20">
            <svg xmlns="http://www.w3.org/2000/svg" xmlns:xlink="http://www.w3.org/1999/xlink" viewBox="0 0 512 512" xmlns:v="https://vecta.io/nano">
                <path d="M490.3 434.9H21.7l7.5 7.5V195.8l-7.5 7.5h468.6l-7.5-7.5v246.6c0 9.7 15 9.7 15 0V195.8c0-4.1-3.4-7.5-7.5-7.5H21.7c-4.1 0-7.5 3.4-7.5 7.5v246.6c0 4.1 3.4 7.5 7.5 7.5h468.6c9.7 0 9.7-15 0-15z" />
                <path d="M490.3 434.9H21.7l7.5 7.5V273.8l-7.5 7.5h468.6l-7.5-7.5v168.6c0 9.7 15 9.7 15 0V273.8c0-4.1-3.4-7.5-7.5-7.5H21.7c-4.1 0-7.5 3.4-7.5 7.5v168.6c0 4.1 3.4 7.5 7.5 7.5h468.6c9.7 0 9.7-15 0-15z" />
                <path d="M164.2 195.8v246.6c0 9.7 15 9.7 15 0V195.8c0-9.7-15-9.7-15 0h0z" />
                <path d="M490.3 434.9H171.6l7.5 7.5V273.8l-7.5 7.5h318.7l-7.5-7.5v168.6c0 9.7 15 9.7 15 0V273.8c0-4.1-3.4-7.5-7.5-7.5H171.6c-4.1 0-7.5 3.4-7.5 7.5v168.6c0 4.1 3.4 7.5 7.5 7.5h318.7c9.7 0 9.7-15 0-15z" />
                <path d="M323.5 273.8v168.6c0 9.7 15 9.7 15 0V273.8c0-9.7-15-9.7-15 0h0zm-14.2-30.7h43.5c9.7 0 9.7-15 0-15h-43.5c-9.7 0-9.7 15 0 15h0z" />
                <path d="M490.3 266.3H171.6l7.5 7.5v-78l-7.5 7.5h318.7l-7.5-7.5v78c0 9.7 15 9.7 15 0v-78c0-4.1-3.4-7.5-7.5-7.5H171.6c-4.1 0-7.5 3.4-7.5 7.5v78c0 4.1 3.4 7.5 7.5 7.5h318.7c9.7 0 9.7-15 0-15zm-347 141.1H50.1l7.5 7.5V301.3l-7.5 7.5h93.2l-7.5-7.5v113.6c0 9.7 15 9.7 15 0V301.3c0-4.1-3.4-7.5-7.5-7.5H50.1c-4.1 0-7.5 3.4-7.5 7.5v113.6c0 4.1 3.4 7.5 7.5 7.5h93.2c9.6 0 9.6-15 0-15z" />
                <path d="M171.7 434.9h-150l7.5 7.5V273.8l-7.5 7.5h150l-7.5-7.5v168.6c0 9.7 15 9.7 15 0V273.8c0-4.1-3.4-7.5-7.5-7.5h-150c-4.1 0-7.5 3.4-7.5 7.5v168.6c0 4.1 3.4 7.5 7.5 7.5h150c9.7 0 9.7-15 0-15zm131.6-55v-43.5c0-9.7-15-9.7-15 0v43.5c0 9.6 15 9.6 15 0h0zm70.4 0v-43.5c0-9.7-15-9.7-15 0v43.5c0 9.6 15 9.6 15 0h0zM74.1 235.6c-.5 11.7-17.6 11.7-18.1 0-.4-11.6 17.7-11.6 18.1 0 .4 9.6 15.4 9.7 15 0-.5-13.5-10.6-23.5-24-24s-23.5 11.4-24 24c-.5 13.4 11.4 23.5 24 24 13.4.5 23.5-11.4 24-24 .4-9.6-14.6-9.6-15 0zm63.2 0c-.5 11.7-17.6 11.7-18.1 0-.5-11.6 17.6-11.6 18.1 0 .4 9.6 15.4 9.7 15 0-.5-13.5-10.6-23.5-24-24s-23.5 11.4-24 24c-.5 13.4 11.4 23.5 24 24 13.4.5 23.5-11.4 24-24 .4-9.6-14.6-9.6-15 0zm-93.1-50.9l7.8 14.9c1.2 2.3 3.9 3.7 6.5 3.7h76.3c2.5 0 5.3-1.4 6.5-3.7 6.6-12.5 13.9-24.5 13.9-39.2v-28.1c0-4.1-3.4-7.5-7.5-7.5H45.5c-4.1 0-7.5 3.4-7.5 7.5.1 17.7-2 36.1 6.2 52.4 4.3 8.7 17.3 1.1 13-7.6-4.1-8.2-4.1-16.5-4.1-25.4v-19.4l-7.5 7.5h102.2l-7.5-7.5v27.5c0 12.1-6.5 21.9-11.9 32.2 2.2-1.2 4.3-2.5 6.5-3.7H58.6c2.2 1.2 4.3 2.5 6.5 3.7l-7.8-14.9c-4.7-8.6-17.6-1-13.1 7.6z" />
                <path d="M171.7 140.9h-23.9c-9.7 0-9.7 15 0 15h23.9c9.7 0 9.7-15 0-15h0zm-126.1 0H21.7c-9.7 0-9.7 15 0 15h23.9c9.7 0 9.7-15 0-15h0zm247.8-49.4H490c9.7 0 9.7-15 0-15H293.4c-9.7 0-9.7 15 0 15h0z" />
                <path d="M374.3 131.9V70.5c0-9.7-15-9.7-15 0v61.4c0 9.7 15 9.7 15 0h0z" />
                <use xlink:href="#B" />
                <path d="M465.1 131V69.5c0-9.7-15-9.7-15 0V131c0 9.7 15 9.7 15 0h0z" />
                <use xlink:href="#B" x="90.8" y="-0.9" />
                <defs>
                    <path id="B" d="M375.9 148.4c-.5 11.7-17.6 11.7-18.1 0-.5-11.6 17.6-11.6 18.1 0 .4 9.6 15.4 9.7 15 0-.5-13.5-10.6-23.5-24-24s-23.5 11.4-24 24c-.5 13.4 11.4 23.5 24 24 13.4.5 23.5-11.4 24-24 .3-9.6-14.7-9.6-15 0z" />
                </defs>
            </svg>

        </symbol>
        <symbol id="category2" viewBox="0 -5 30 30">
            <svg xmlns="http://www.w3.org/2000/svg" width="24" height="24" xmlns:v="https://vecta.io/nano">
                <path d="M2 7h20v3h-2l1 9h-2.5l-.56-5H6.06l-.56 5H3l1-9H2V7m15.5 3h-11l-.2 2H17.7l-.2-2z" /></svg>
        </symbol>
        <symbol id="instagram" viewBox="0 0 24 24">
            <svg role="img" viewBox="0 0 24 24" xmlns="http://www.w3.org/2000/svg">
                <path d="M12 0C8.74 0 8.333.015 7.053.072 5.775.132 4.905.333 4.14.63c-.789.306-1.459.717-2.126 1.384S.935 3.35.63 4.14C.333 4.905.131 5.775.072 7.053.012 8.333 0 8.74 0 12s.015 3.667.072 4.947c.06 1.277.261 2.148.558 2.913.306.788.717 1.459 1.384 2.126.667.666 1.336 1.079 2.126 1.384.766.296 1.636.499 2.913.558C8.333 23.988 8.74 24 12 24s3.667-.015 4.947-.072c1.277-.06 2.148-.262 2.913-.558.788-.306 1.459-.718 2.126-1.384.666-.667 1.079-1.335 1.384-2.126.296-.765.499-1.636.558-2.913.06-1.28.072-1.687.072-4.947s-.015-3.667-.072-4.947c-.06-1.277-.262-2.149-.558-2.913-.306-.789-.718-1.459-1.384-2.126C21.319 1.347 20.651.935 19.86.63c-.765-.297-1.636-.499-2.913-.558C15.667.012 15.26 0 12 0zm0 2.16c3.203 0 3.585.016 4.85.071 1.17.055 1.805.249 2.227.415.562.217.96.477 1.382.896.419.42.679.819.896 1.381.164.422.36 1.057.413 2.227.057 1.266.07 1.646.07 4.85s-.015 3.585-.074 4.85c-.061 1.17-.256 1.805-.421 2.227-.224.562-.479.96-.899 1.382-.419.419-.824.679-1.38.896-.42.164-1.065.36-2.235.413-1.274.057-1.649.07-4.859.07-3.211 0-3.586-.015-4.859-.074-1.171-.061-1.816-.256-2.236-.421-.569-.224-.96-.479-1.379-.899-.421-.419-.69-.824-.9-1.38-.165-.42-.359-1.065-.42-2.235-.045-1.26-.061-1.649-.061-4.844 0-3.196.016-3.586.061-4.861.061-1.17.255-1.814.42-2.234.21-.57.479-.96.9-1.381.419-.419.81-.689 1.379-.898.42-.166 1.051-.361 2.221-.421 1.275-.045 1.65-.06 4.859-.06l.045.03zm0 3.678c-3.405 0-6.162 2.76-6.162 6.162 0 3.405 2.76 6.162 6.162 6.162 3.405 0 6.162-2.76 6.162-6.162 0-3.405-2.76-6.162-6.162-6.162zM12 16c-2.21 0-4-1.79-4-4s1.79-4 4-4 4 1.79 4 4-1.79 4-4 4zm7.846-10.405c0 .795-.646 1.44-1.44 1.44-.795 0-1.44-.646-1.44-1.44 0-.794.646-1.439 1.44-1.439.793-.001 1.44.645 1.44 1.439z" /></svg>
        </symbol>
        <symbol id="youtube" viewBox="0 0 24 24">
            <svg role="img" xmlns="http://www.w3.org/2000/svg" viewBox="0 0 24 24">
                <path d="M23.495 6.205a3.007 3.007 0 0 0-2.088-2.088c-1.87-.501-9.396-.501-9.396-.501s-7.507-.01-9.396.501A3.007 3.007 0 0 0 .527 6.205a31.247 31.247 0 0 0-.522 5.805 31.247 31.247 0 0 0 .522 5.783 3.007 3.007 0 0 0 2.088 2.088c1.868.502 9.396.502 9.396.502s7.506 0 9.396-.502a3.007 3.007 0 0 0 2.088-2.088 31.247 31.247 0 0 0 .5-5.783 31.247 31.247 0 0 0-.5-5.805zM9.609 15.601V8.408l6.264 3.602z" /></svg>
        </symbol>
        <symbol id="facebook" viewBox="0 0 24 24">
            <svg role="img" viewBox="0 0 24 24" xmlns="http://www.w3.org/2000/svg">
                <path d="M23.9981 11.9991C23.9981 5.37216 18.626 0 11.9991 0C5.37216 0 0 5.37216 0 11.9991C0 17.9882 4.38789 22.9522 10.1242 23.8524V15.4676H7.07758V11.9991H10.1242V9.35553C10.1242 6.34826 11.9156 4.68714 14.6564 4.68714C15.9692 4.68714 17.3424 4.92149 17.3424 4.92149V7.87439H15.8294C14.3388 7.87439 13.8739 8.79933 13.8739 9.74824V11.9991H17.2018L16.6698 15.4676H13.8739V23.8524C19.6103 22.9522 23.9981 17.9882 23.9981 11.9991Z" /></svg>
        </symbol>
        <symbol id="next">
            <svg class="icon_slider" viewBox="0 0 24 24" xmlns="http://www.w3.org/2000/svg">
                <path stroke-width="1" stroke-miterlimit="10" d="M9 5l7 7-7 7"></path>
            </svg>
        </symbol>
    </svg>
