    <svg display="none" xmlns="http://www.w3.org/2000/svg">
      <symbol id="burger" viewBox="0 -5 30 30">
        <svg width="40" height="40" viewBox="0 -5 30 30">
          <line x1="0" y1="0" x2="40" y2="0" style="stroke: #fff; stroke-width: 1px;" fill="currentColor" />
          <line x1="0" y1="8" x2="40" y2="8" style="stroke: #fff; stroke-width: 1px;" />
          <line x1="0" y1="16" x2="40" y2="16" style="stroke: #fff; stroke-width: 1px;" />
        </svg>
      </symbol>
      <symbol id="card">
        <svg xmlns="http://www.w3.org/2000/svg" width="485.196" height="485.196">
          <path d="M85.736 45.479H0v30.327h65.892l106.143 242.599h252.508v-30.321H191.875z" />
          <path d="M151.628 106.131l60.654 151.631h212.261l60.653-151.631H151.628zM404.05 227.435H232.82l-36.396-90.978H440.42l-36.37 90.978zM227.443 348.737c-25.127 0-45.488 20.372-45.488 45.489 0 25.109 20.36 45.49 45.488 45.49 25.109 0 45.476-20.381 45.476-45.49 0-25.117-20.367-45.489-45.476-45.489zm0 60.649c-8.363 0-15.161-6.81-15.161-15.159 0-8.354 6.797-15.163 15.161-15.163 8.366 0 15.164 6.81 15.164 15.163-.001 8.349-6.798 15.159-15.164 15.159zM379.058 348.737c-25.113 0-45.49 20.372-45.49 45.489 0 25.109 20.377 45.49 45.49 45.49s45.485-20.381 45.485-45.49c0-25.117-20.372-45.489-45.485-45.489zm0 60.649c-8.35 0-15.158-6.81-15.158-15.159 0-8.354 6.809-15.163 15.158-15.163 8.345 0 15.163 6.81 15.163 15.163 0 8.349-6.809 15.159-15.163 15.159z" />
        </svg>
      </symbol>
      <symbol id="search" viewBox="0 0 100 100">
        <svg xmlns="http://www.w3.org/2000/svg" width="485.196" height="485.196">
          <path d="M85.736 45.479H0v30.327h65.892l106.143 242.599h252.508v-30.321H191.875z" />
          <path d="M151.628 106.131l60.654 151.631h212.261l60.653-151.631H151.628zM404.05 227.435H232.82l-36.396-90.978H440.42l-36.37 90.978zM227.443 348.737c-25.127 0-45.488 20.372-45.488 45.489 0 25.109 20.36 45.49 45.488 45.49 25.109 0 45.476-20.381 45.476-45.49 0-25.117-20.367-45.489-45.476-45.489zm0 60.649c-8.363 0-15.161-6.81-15.161-15.159 0-8.354 6.797-15.163 15.161-15.163 8.366 0 15.164 6.81 15.164 15.163-.001 8.349-6.798 15.159-15.164 15.159zM379.058 348.737c-25.113 0-45.49 20.372-45.49 45.489 0 25.109 20.377 45.49 45.49 45.49s45.485-20.381 45.485-45.49c0-25.117-20.372-45.489-45.485-45.489zm0 60.649c-8.35 0-15.158-6.81-15.158-15.159 0-8.354 6.809-15.163 15.158-15.163 8.345 0 15.163 6.81 15.163 15.163 0 8.349-6.809 15.159-15.163 15.159z" /></svg>
      </symbol>
      <symbol id="cat1" viewBox="0 0 100 100">
        <svg viewBox="0 0 32 32" xmlns="http://www.w3.org/2000/svg">
          <g data-name="Layer 2">
            <path d="M12 21a1 1 0 01-.71-.29 1 1 0 010-1.42l8-8a1 1 0 011.42 1.42l-8 8A1 1 0 0112 21zM12.5 14a1.5 1.5 0 111.5-1.5 1.5 1.5 0 01-1.5 1.5zm0-2a.5.5 0 10.5.5.5.5 0 00-.5-.5zM19.5 21a1.5 1.5 0 111.5-1.5 1.5 1.5 0 01-1.5 1.5zm0-2a.5.5 0 10.5.5.5.5 0 00-.5-.5z" />
            <path d="M19.71 28.5a1 1 0 01-.83-.44l-.23-.34a3.16 3.16 0 00-5.3 0l-.23.34a1 1 0 01-1.83-.59v-.17a3.52 3.52 0 00-1.42-3A3.09 3.09 0 007 23.92l-.36.13A1 1 0 015.5 22.5a3.57 3.57 0 00.5-3.3A3.28 3.28 0 003.84 17h-.13a1 1 0 010-1.92h.13A3.28 3.28 0 006 12.8a3.57 3.57 0 00-.5-3.3A1 1 0 016.63 8l.37.08a3.09 3.09 0 002.89-.42 3.52 3.52 0 001.42-3v-.13a1 1 0 011.83-.59l.23.34A3.19 3.19 0 0016 5.72a3.19 3.19 0 002.65-1.44l.23-.34a1 1 0 011.83.59v.17a3.52 3.52 0 001.42 3 3.09 3.09 0 002.87.38l.37-.08a1 1 0 011.13 1.5 3.57 3.57 0 00-.5 3.3 3.28 3.28 0 002.2 2.2h.13a1 1 0 010 1.92h-.13A3.28 3.28 0 0026 19.2a3.57 3.57 0 00.54 3.3 1 1 0 01-1.13 1.55l-.41-.13a3.09 3.09 0 00-2.89.42 3.52 3.52 0 00-1.42 3v.17a1 1 0 01-.69 1 1.18 1.18 0 01-.29-.01zM16 24.28a5.1 5.1 0 013 1 5.42 5.42 0 012-2.56 5.11 5.11 0 013-1 5.64 5.64 0 01.1-3.15A5.5 5.5 0 0125.83 16a5.5 5.5 0 01-1.78-2.58 5.64 5.64 0 01-.1-3.15 5.11 5.11 0 01-3-1A5.42 5.42 0 0119 6.73a5.1 5.1 0 01-3 1 5.1 5.1 0 01-3-1 5.36 5.36 0 01-1.91 2.55 5.11 5.11 0 01-3 1A5.64 5.64 0 018 13.42 5.5 5.5 0 016.17 16 5.5 5.5 0 018 18.58a5.64 5.64 0 01.1 3.15 5.11 5.11 0 013 1 5.36 5.36 0 011.9 2.54 5.1 5.1 0 013-.99z" />
          </g>
          <path fill="none" d="M0 0h32v32H0z" />
        </svg>
      </symbol>
      <symbol id="more" viewBox="0 0 25 25">
        <svg viewBox="0 0 25 25" xmlns="http://www.w3.org/2000/svg">
          <polyline points="10,10 15,15 10,20" style="fill:none;stroke:#dd7281;stroke-width:1" />
        </svg>
      </symbol>
      <symbol id="category1" viewBox="0 0 20 20">
        <svg xmlns="http://www.w3.org/2000/svg" xmlns:xlink="http://www.w3.org/1999/xlink" viewBox="0 0 512 512" xmlns:v="https://vecta.io/nano">
          <path d="M490.3 434.9H21.7l7.5 7.5V195.8l-7.5 7.5h468.6l-7.5-7.5v246.6c0 9.7 15 9.7 15 0V195.8c0-4.1-3.4-7.5-7.5-7.5H21.7c-4.1 0-7.5 3.4-7.5 7.5v246.6c0 4.1 3.4 7.5 7.5 7.5h468.6c9.7 0 9.7-15 0-15z" />
          <path d="M490.3 434.9H21.7l7.5 7.5V273.8l-7.5 7.5h468.6l-7.5-7.5v168.6c0 9.7 15 9.7 15 0V273.8c0-4.1-3.4-7.5-7.5-7.5H21.7c-4.1 0-7.5 3.4-7.5 7.5v168.6c0 4.1 3.4 7.5 7.5 7.5h468.6c9.7 0 9.7-15 0-15z" />
          <path d="M164.2 195.8v246.6c0 9.7 15 9.7 15 0V195.8c0-9.7-15-9.7-15 0h0z" />
          <path d="M490.3 434.9H171.6l7.5 7.5V273.8l-7.5 7.5h318.7l-7.5-7.5v168.6c0 9.7 15 9.7 15 0V273.8c0-4.1-3.4-7.5-7.5-7.5H171.6c-4.1 0-7.5 3.4-7.5 7.5v168.6c0 4.1 3.4 7.5 7.5 7.5h318.7c9.7 0 9.7-15 0-15z" />
          <path d="M323.5 273.8v168.6c0 9.7 15 9.7 15 0V273.8c0-9.7-15-9.7-15 0h0zm-14.2-30.7h43.5c9.7 0 9.7-15 0-15h-43.5c-9.7 0-9.7 15 0 15h0z" />
          <path d="M490.3 266.3H171.6l7.5 7.5v-78l-7.5 7.5h318.7l-7.5-7.5v78c0 9.7 15 9.7 15 0v-78c0-4.1-3.4-7.5-7.5-7.5H171.6c-4.1 0-7.5 3.4-7.5 7.5v78c0 4.1 3.4 7.5 7.5 7.5h318.7c9.7 0 9.7-15 0-15zm-347 141.1H50.1l7.5 7.5V301.3l-7.5 7.5h93.2l-7.5-7.5v113.6c0 9.7 15 9.7 15 0V301.3c0-4.1-3.4-7.5-7.5-7.5H50.1c-4.1 0-7.5 3.4-7.5 7.5v113.6c0 4.1 3.4 7.5 7.5 7.5h93.2c9.6 0 9.6-15 0-15z" />
          <path d="M171.7 434.9h-150l7.5 7.5V273.8l-7.5 7.5h150l-7.5-7.5v168.6c0 9.7 15 9.7 15 0V273.8c0-4.1-3.4-7.5-7.5-7.5h-150c-4.1 0-7.5 3.4-7.5 7.5v168.6c0 4.1 3.4 7.5 7.5 7.5h150c9.7 0 9.7-15 0-15zm131.6-55v-43.5c0-9.7-15-9.7-15 0v43.5c0 9.6 15 9.6 15 0h0zm70.4 0v-43.5c0-9.7-15-9.7-15 0v43.5c0 9.6 15 9.6 15 0h0zM74.1 235.6c-.5 11.7-17.6 11.7-18.1 0-.4-11.6 17.7-11.6 18.1 0 .4 9.6 15.4 9.7 15 0-.5-13.5-10.6-23.5-24-24s-23.5 11.4-24 24c-.5 13.4 11.4 23.5 24 24 13.4.5 23.5-11.4 24-24 .4-9.6-14.6-9.6-15 0zm63.2 0c-.5 11.7-17.6 11.7-18.1 0-.5-11.6 17.6-11.6 18.1 0 .4 9.6 15.4 9.7 15 0-.5-13.5-10.6-23.5-24-24s-23.5 11.4-24 24c-.5 13.4 11.4 23.5 24 24 13.4.5 23.5-11.4 24-24 .4-9.6-14.6-9.6-15 0zm-93.1-50.9l7.8 14.9c1.2 2.3 3.9 3.7 6.5 3.7h76.3c2.5 0 5.3-1.4 6.5-3.7 6.6-12.5 13.9-24.5 13.9-39.2v-28.1c0-4.1-3.4-7.5-7.5-7.5H45.5c-4.1 0-7.5 3.4-7.5 7.5.1 17.7-2 36.1 6.2 52.4 4.3 8.7 17.3 1.1 13-7.6-4.1-8.2-4.1-16.5-4.1-25.4v-19.4l-7.5 7.5h102.2l-7.5-7.5v27.5c0 12.1-6.5 21.9-11.9 32.2 2.2-1.2 4.3-2.5 6.5-3.7H58.6c2.2 1.2 4.3 2.5 6.5 3.7l-7.8-14.9c-4.7-8.6-17.6-1-13.1 7.6z" />
          <path d="M171.7 140.9h-23.9c-9.7 0-9.7 15 0 15h23.9c9.7 0 9.7-15 0-15h0zm-126.1 0H21.7c-9.7 0-9.7 15 0 15h23.9c9.7 0 9.7-15 0-15h0zm247.8-49.4H490c9.7 0 9.7-15 0-15H293.4c-9.7 0-9.7 15 0 15h0z" />
          <path d="M374.3 131.9V70.5c0-9.7-15-9.7-15 0v61.4c0 9.7 15 9.7 15 0h0z" />
          <use xlink:href="#B" />
          <path d="M465.1 131V69.5c0-9.7-15-9.7-15 0V131c0 9.7 15 9.7 15 0h0z" />
          <use xlink:href="#B" x="90.8" y="-0.9" />
          <defs>
            <path id="B" d="M375.9 148.4c-.5 11.7-17.6 11.7-18.1 0-.5-11.6 17.6-11.6 18.1 0 .4 9.6 15.4 9.7 15 0-.5-13.5-10.6-23.5-24-24s-23.5 11.4-24 24c-.5 13.4 11.4 23.5 24 24 13.4.5 23.5-11.4 24-24 .3-9.6-14.7-9.6-15 0z" />
          </defs>
        </svg>

      </symbol>
      <symbol id="category2" viewBox="0 -5 30 30">
        <svg xmlns="http://www.w3.org/2000/svg" width="24" height="24" xmlns:v="https://vecta.io/nano">
          <path d="M2 7h20v3h-2l1 9h-2.5l-.56-5H6.06l-.56 5H3l1-9H2V7m15.5 3h-11l-.2 2H17.7l-.2-2z" /></svg>
      </symbol>
      <symbol id="instagram">
        <svg width="12" height="12" viewBox="0 0 12 12" xmlns="http://www.w3.org/2000/svg">
          <path d="M5.99982 3.19587C4.44806 3.19587 3.19572 4.44821 3.19572 5.99997C3.19572 7.55172 4.44806 8.80407 5.99982 8.80407C7.55158 8.80407 8.80393 7.55172 8.80393 5.99997C8.80393 4.44821 7.55158 3.19587 5.99982 3.19587ZM5.99982 7.82243C4.99631 7.82243 4.17736 7.00348 4.17736 5.99997C4.17736 4.99645 4.99631 4.17751 5.99982 4.17751C7.00334 4.17751 7.82228 4.99645 7.82228 5.99997C7.82228 7.00348 7.00334 7.82243 5.99982 7.82243ZM8.91877 2.42751C8.55647 2.42751 8.26389 2.72008 8.26389 3.08239C8.26389 3.44469 8.55647 3.73727 8.91877 3.73727C9.28107 3.73727 9.57365 3.44606 9.57365 3.08239C9.57376 2.99636 9.5569 2.91115 9.52402 2.83165C9.49115 2.75215 9.44291 2.67991 9.38208 2.61908C9.32125 2.55824 9.24901 2.51001 9.16951 2.47714C9.09001 2.44426 9.0048 2.4274 8.91877 2.42751ZM11.4658 5.99997C11.4658 5.24528 11.4727 4.49743 11.4303 3.74411C11.3879 2.86911 11.1883 2.09255 10.5485 1.4527C9.90725 0.811491 9.13205 0.613248 8.25705 0.570866C7.50236 0.528483 6.75451 0.535319 6.00119 0.535319C5.2465 0.535319 4.49865 0.528483 3.74533 0.570866C2.87033 0.613248 2.09377 0.812858 1.45392 1.4527C0.812711 2.09391 0.614469 2.86911 0.572086 3.74411C0.529704 4.4988 0.536539 5.24665 0.536539 5.99997C0.536539 6.75329 0.529704 7.50251 0.572086 8.25583C0.614469 9.13083 0.814079 9.90739 1.45392 10.5472C2.09513 11.1884 2.87033 11.3867 3.74533 11.4291C4.50002 11.4715 5.24787 11.4646 6.00119 11.4646C6.75588 11.4646 7.50373 11.4715 8.25705 11.4291C9.13205 11.3867 9.90861 11.1871 10.5485 10.5472C11.1897 9.90602 11.3879 9.13083 11.4303 8.25583C11.474 7.50251 11.4658 6.75465 11.4658 5.99997ZM10.2627 9.22379C10.1629 9.47262 10.0426 9.65856 9.84982 9.84997C9.65705 10.0427 9.47248 10.1631 9.22365 10.2629C8.50451 10.5486 6.79689 10.4843 5.99982 10.4843C5.20275 10.4843 3.49377 10.5486 2.77463 10.2642C2.5258 10.1644 2.33986 10.0441 2.14845 9.85133C1.95568 9.65856 1.83537 9.47399 1.73556 9.22516C1.45119 8.50465 1.51545 6.79704 1.51545 5.99997C1.51545 5.2029 1.45119 3.49391 1.73556 2.77477C1.83537 2.52594 1.95568 2.34001 2.14845 2.1486C2.34123 1.95719 2.5258 1.83551 2.77463 1.73571C3.49377 1.45133 5.20275 1.51559 5.99982 1.51559C6.79689 1.51559 8.50588 1.45133 9.22502 1.73571C9.47385 1.83551 9.65979 1.95583 9.85119 2.1486C10.044 2.34137 10.1643 2.52594 10.2641 2.77477C10.5485 3.49391 10.4842 5.2029 10.4842 5.99997C10.4842 6.79704 10.5485 8.50465 10.2627 9.22379Z" />
        </svg>
      </symbol>
      <symbol id="youtube" viewBox="0 0 14 12">
        <svg width="14" height="12" viewBox="0 0 14 12" xmlns="http://www.w3.org/2000/svg">
          <path d="M14 5.95615C14 5.92178 14 5.88272 13.9984 5.8374C13.9969 5.71084 13.9938 5.56865 13.9906 5.41709C13.9781 4.98115 13.9563 4.54678 13.9219 4.1374C13.875 3.57334 13.8062 3.10303 13.7125 2.7499C13.6136 2.38139 13.4196 2.04529 13.1501 1.77521C12.8806 1.50513 12.5449 1.31052 12.1766 1.21084C11.7344 1.09209 10.8687 1.01865 9.65 0.97334C9.07031 0.951465 8.45 0.937402 7.82969 0.92959C7.6125 0.926465 7.41094 0.924902 7.22969 0.92334H6.77031C6.58906 0.924902 6.3875 0.926465 6.17031 0.92959C5.55 0.937402 4.92969 0.951465 4.35 0.97334C3.13125 1.02021 2.26406 1.09365 1.82344 1.21084C1.455 1.31028 1.11917 1.5048 0.8496 1.77492C0.580029 2.04504 0.386188 2.38127 0.2875 2.7499C0.192188 3.10303 0.125 3.57334 0.078125 4.1374C0.04375 4.54678 0.021875 4.98115 0.00937498 5.41709C0.00468748 5.56865 0.00312498 5.71084 0.00156248 5.8374C0.00156248 5.88272 0 5.92178 0 5.95615V6.04365C0 6.07803 -2.38651e-08 6.11709 0.00156248 6.1624C0.00312498 6.28897 0.00624998 6.43115 0.00937498 6.58272C0.021875 7.01865 0.04375 7.45303 0.078125 7.8624C0.125 8.42647 0.19375 8.89678 0.2875 9.2499C0.4875 9.99834 1.075 10.589 1.82344 10.789C2.26406 10.9077 3.13125 10.9812 4.35 11.0265C4.92969 11.0483 5.55 11.0624 6.17031 11.0702C6.3875 11.0733 6.58906 11.0749 6.77031 11.0765H7.22969C7.41094 11.0749 7.6125 11.0733 7.82969 11.0702C8.45 11.0624 9.07031 11.0483 9.65 11.0265C10.8687 10.9796 11.7359 10.9062 12.1766 10.789C12.925 10.589 13.5125 9.9999 13.7125 9.2499C13.8078 8.89678 13.875 8.42647 13.9219 7.8624C13.9563 7.45303 13.9781 7.01865 13.9906 6.58272C13.9953 6.43115 13.9969 6.28897 13.9984 6.1624C13.9984 6.11709 14 6.07803 14 6.04365V5.95615ZM12.875 6.0374C12.875 6.07022 12.875 6.10615 12.8734 6.14834C12.8719 6.27022 12.8688 6.40459 12.8656 6.5499C12.8547 6.96553 12.8328 7.38115 12.8 7.76709C12.7578 8.27022 12.6984 8.68272 12.625 8.95928C12.5281 9.32022 12.2437 9.60615 11.8844 9.70147C11.5562 9.78897 10.7297 9.85928 9.60625 9.90147C9.0375 9.92334 8.425 9.9374 7.81406 9.94522C7.6 9.94834 7.40156 9.9499 7.22344 9.9499H6.77656L6.18594 9.94522C5.575 9.9374 4.96406 9.92334 4.39375 9.90147C3.27031 9.85772 2.44219 9.78897 2.11562 9.70147C1.75625 9.60459 1.47187 9.32022 1.375 8.95928C1.30156 8.68272 1.24219 8.27022 1.2 7.76709C1.16719 7.38115 1.14688 6.96553 1.13438 6.5499C1.12969 6.40459 1.12813 6.26865 1.12656 6.14834C1.12656 6.10615 1.125 6.06865 1.125 6.0374V5.9624C1.125 5.92959 1.125 5.89365 1.12656 5.85147C1.12813 5.72959 1.13125 5.59522 1.13438 5.4499C1.14531 5.03428 1.16719 4.61865 1.2 4.23272C1.24219 3.72959 1.30156 3.31709 1.375 3.04053C1.47187 2.67959 1.75625 2.39365 2.11562 2.29834C2.44375 2.21084 3.27031 2.14053 4.39375 2.09834C4.9625 2.07646 5.575 2.0624 6.18594 2.05459C6.4 2.05146 6.59844 2.0499 6.77656 2.0499H7.22344L7.81406 2.05459C8.425 2.0624 9.03594 2.07646 9.60625 2.09834C10.7297 2.14209 11.5578 2.21084 11.8844 2.29834C12.2437 2.39522 12.5281 2.67959 12.625 3.04053C12.6984 3.31709 12.7578 3.72959 12.8 4.23272C12.8328 4.61865 12.8531 5.03428 12.8656 5.4499C12.8703 5.59522 12.8719 5.73115 12.8734 5.85147C12.8734 5.89365 12.875 5.93115 12.875 5.9624V6.0374ZM5.60938 8.09365L9.23438 5.98428L5.60938 3.90615V8.09365Z" />
        </svg>
      </symbol>
      <symbol id="facebook" viewBox="0 0 11 11">
        <svg width="11" height="11" viewBox="0 0 11 11" xmlns="http://www.w3.org/2000/svg">
          <path d="M10.1719 0.421875H0.828125C0.603418 0.421875 0.421875 0.603418 0.421875 0.828125V10.1719C0.421875 10.3966 0.603418 10.5781 0.828125 10.5781H10.1719C10.3966 10.5781 10.5781 10.3966 10.5781 10.1719V0.828125C10.5781 0.603418 10.3966 0.421875 10.1719 0.421875ZM9.76562 9.76562H7.42842V6.64512H8.74873L8.94678 5.11279H7.42842V4.13398C7.42842 3.68965 7.55156 3.3875 8.1876 3.3875H8.99883V2.01641C8.85791 1.99736 8.37676 1.95547 7.81563 1.95547C6.64512 1.95547 5.84404 2.67021 5.84404 3.98164V5.11152H4.52119V6.64385H5.84531V9.76562H1.23438V1.23438H9.76562V9.76562Z" />
        </svg>
      </symbol>
    </svg>
